<?xml version="1.0" encoding="UTF-8" standalone="no"?>
<!-- Created with Inkscape (http://www.inkscape.org/) -->

<svg
   xmlns:dc="http://purl.org/dc/elements/1.1/"
   xmlns:cc="http://creativecommons.org/ns#"
   xmlns:rdf="http://www.w3.org/1999/02/22-rdf-syntax-ns#"
   xmlns:svg="http://www.w3.org/2000/svg"
   xmlns="http://www.w3.org/2000/svg"
   xmlns:xlink="http://www.w3.org/1999/xlink"
   xmlns:sodipodi="http://sodipodi.sourceforge.net/DTD/sodipodi-0.dtd"
   xmlns:inkscape="http://www.inkscape.org/namespaces/inkscape"
   width="128"
   height="128"
   id="svg2"
   version="1.1"
   inkscape:version="0.48.4 r9939"
   sodipodi:docname="spriteSheet.svg"
   inkscape:export-filename="I:\MonkeyModules\fantomEngine\examples\SpriteSheets\SheetAnim\SheetAnim.data\spriteSheet.png"
   inkscape:export-xdpi="90"
   inkscape:export-ydpi="90">
  <defs
     id="defs4">
    <linearGradient
       inkscape:collect="always"
       id="linearGradient3849">
      <stop
         style="stop-color:#cccccc;stop-opacity:1;"
         offset="0"
         id="stop3851" />
      <stop
         style="stop-color:#cccccc;stop-opacity:0;"
         offset="1"
         id="stop3853" />
    </linearGradient>
    <linearGradient
       inkscape:collect="always"
       id="linearGradient3831">
      <stop
         style="stop-color:#ffffff;stop-opacity:1;"
         offset="0"
         id="stop3833" />
      <stop
         style="stop-color:#ffffff;stop-opacity:0;"
         offset="1"
         id="stop3835" />
    </linearGradient>
    <linearGradient
       inkscape:collect="always"
       xlink:href="#linearGradient3831"
       id="linearGradient3837"
       x1="16"
       y1="74.444382"
       x2="16"
       y2="79.500008"
       gradientUnits="userSpaceOnUse" />
    <linearGradient
       inkscape:collect="always"
       xlink:href="#linearGradient3831"
       id="linearGradient3841"
       gradientUnits="userSpaceOnUse"
       x1="16"
       y1="74.444382"
       x2="16"
       y2="79.500008" />
    <radialGradient
       inkscape:collect="always"
       xlink:href="#linearGradient3849"
       id="radialGradient3855"
       cx="16"
       cy="74.5"
       fx="16"
       fy="74.5"
       r="2"
       gradientTransform="matrix(-5.2000199e-7,-3.4321069,2,1.5581839e-6,-132.99999,130.77781)"
       gradientUnits="userSpaceOnUse" />
  </defs>
  <sodipodi:namedview
     id="base"
     pagecolor="#ffffff"
     bordercolor="#666666"
     borderopacity="1.0"
     inkscape:pageopacity="0.0"
     inkscape:pageshadow="2"
     inkscape:zoom="6.8046875"
     inkscape:cx="64"
     inkscape:cy="64"
     inkscape:document-units="px"
     inkscape:current-layer="layer2"
     showgrid="true"
     inkscape:window-width="1920"
     inkscape:window-height="1058"
     inkscape:window-x="-8"
     inkscape:window-y="-8"
     inkscape:window-maximized="1">
    <inkscape:grid
       type="xygrid"
       id="grid2985"
       empspacing="8"
       visible="true"
       enabled="true"
       snapvisiblegridlinesonly="true" />
  </sodipodi:namedview>
  <metadata
     id="metadata7">
    <rdf:RDF>
      <cc:Work
         rdf:about="">
        <dc:format>image/svg+xml</dc:format>
        <dc:type
           rdf:resource="http://purl.org/dc/dcmitype/StillImage" />
        <dc:title></dc:title>
      </cc:Work>
    </rdf:RDF>
  </metadata>
  <g
     inkscape:label="Grid"
     inkscape:groupmode="layer"
     id="layer1"
     transform="translate(0,-924.36218)"
     sodipodi:insensitive="true"
     style="display:none">
    <rect
       style="opacity:0.75;fill:#b3b3b3;fill-opacity:1;stroke:none"
       id="rect3755"
       width="32"
       height="32"
       x="0"
       y="924.36218" />
    <rect
       y="924.36218"
       x="64"
       height="32"
       width="32"
       id="rect3757"
       style="opacity:0.75;fill:#b3b3b3;fill-opacity:1;stroke:none" />
    <rect
       style="opacity:0.75;fill:#b3b3b3;fill-opacity:1;stroke:none"
       id="rect3759"
       width="32"
       height="32"
       x="64"
       y="988.36218" />
    <rect
       y="988.36218"
       x="0"
       height="32"
       width="32"
       id="rect3761"
       style="opacity:0.75;fill:#b3b3b3;fill-opacity:1;stroke:none" />
    <rect
       style="opacity:0.75;fill:#b3b3b3;fill-opacity:1;stroke:none"
       id="rect3763"
       width="32"
       height="32"
       x="32"
       y="956.36218" />
    <rect
       y="1020.3622"
       x="32"
       height="32"
       width="32"
       id="rect3765"
       style="opacity:0.75;fill:#b3b3b3;fill-opacity:1;stroke:none" />
    <rect
       style="opacity:0.75;fill:#b3b3b3;fill-opacity:1;stroke:none"
       id="rect3767"
       width="32"
       height="32"
       x="96"
       y="1020.3622" />
    <rect
       y="956.36218"
       x="96"
       height="32"
       width="32"
       id="rect3769"
       style="opacity:0.75;fill:#b3b3b3;fill-opacity:1;stroke:none" />
  </g>
  <g
     inkscape:groupmode="layer"
     id="layer2"
     inkscape:label="Ebene"
     style="display:inline">
    <rect
       style="fill:#ff0000;fill-opacity:1;stroke:none"
       id="rect3772"
       width="24"
       height="24"
       x="4"
       y="4" />
    <rect
       y="4"
       x="36"
       height="24"
       width="24"
       id="rect3774"
       style="fill:#ff0000;fill-opacity:1;stroke:none" />
    <rect
       style="fill:#ff0000;fill-opacity:1;stroke:none"
       id="rect3776"
       width="24"
       height="24"
       x="68"
       y="4" />
    <rect
       y="4"
       x="100"
       height="24"
       width="24"
       id="rect3778"
       style="fill:#ff0000;fill-opacity:1;stroke:none" />
    <path
       sodipodi:type="arc"
       style="fill:#ffff00;fill-opacity:1;stroke:none"
       id="path3780"
       sodipodi:cx="16"
       sodipodi:cy="16"
       sodipodi:rx="8"
       sodipodi:ry="8"
       d="M 24,16 A 8,8 0 1 1 8,16 8,8 0 1 1 24,16 z" />
    <path
       d="M 24,16 A 8,8 0 1 1 8,16 8,8 0 1 1 24,16 z"
       sodipodi:ry="8"
       sodipodi:rx="8"
       sodipodi:cy="16"
       sodipodi:cx="16"
       id="path3782"
       style="fill:#ffff00;fill-opacity:1;stroke:none"
       sodipodi:type="arc"
       transform="matrix(0.8125,0,0,0.8125,35,3)" />
    <path
       d="M 24,16 A 8,8 0 1 1 8,16 8,8 0 1 1 24,16 z"
       sodipodi:ry="8"
       sodipodi:rx="8"
       sodipodi:cy="16"
       sodipodi:cx="16"
       id="path3784"
       style="fill:#ffff00;fill-opacity:1;stroke:none"
       sodipodi:type="arc"
       transform="matrix(0.625,0,0,0.625,70,6)" />
    <path
       transform="matrix(0.4375,0,0,0.4375,105,9)"
       sodipodi:type="arc"
       style="fill:#ffff00;fill-opacity:1;stroke:none"
       id="path3786"
       sodipodi:cx="16"
       sodipodi:cy="16"
       sodipodi:rx="8"
       sodipodi:ry="8"
       d="M 24,16 A 8,8 0 1 1 8,16 8,8 0 1 1 24,16 z" />
    <path
       sodipodi:type="arc"
       style="fill:#ffff00;fill-opacity:1;stroke:none"
       id="path3788"
       sodipodi:cx="16"
       sodipodi:cy="48"
       sodipodi:rx="8"
       sodipodi:ry="8"
       d="m 24,48 a 8,8 0 0 1 -7.943479,7.9998 L 16,48 z"
       transform="matrix(1.5,0,0,1.5,-8,-24)"
       sodipodi:start="0"
       sodipodi:end="1.5637312" />
    <path
       transform="matrix(1.5,0,0,1.5,24,-24)"
       d="M 24,48 A 8,8 0 1 1 8,48 l 8,0 z"
       sodipodi:ry="8"
       sodipodi:rx="8"
       sodipodi:cy="48"
       sodipodi:cx="16"
       id="path3790"
       style="fill:#ffff00;fill-opacity:1;stroke:none"
       sodipodi:type="arc"
       sodipodi:start="0"
       sodipodi:end="3.1415927" />
    <path
       sodipodi:type="arc"
       style="fill:#ffff00;fill-opacity:1;stroke:none"
       id="path3792"
       sodipodi:cx="16"
       sodipodi:cy="48"
       sodipodi:rx="8"
       sodipodi:ry="8"
       d="M 24,48 A 8,8 0 1 1 16.152604,40.001456 L 16,48 z"
       transform="matrix(1.5,0,0,1.5,56,-24)"
       sodipodi:start="0"
       sodipodi:end="4.7314656" />
    <path
       transform="matrix(1.5,0,0,1.5,88,-24)"
       d="M 24,48 A 8,8 0 1 1 8,48 8,8 0 1 1 24,48 z"
       sodipodi:ry="8"
       sodipodi:rx="8"
       sodipodi:cy="48"
       sodipodi:cx="16"
       id="path3794"
       style="fill:#ffff00;fill-opacity:1;stroke:none"
       sodipodi:type="arc" />
    <path
       style="fill:#999999;fill-opacity:1;stroke:#808080;stroke-width:0.20000000000000001;stroke-miterlimit:4;stroke-dasharray:none"
       d="m 15,88 2,0 1,4 -4,0 z"
       id="rect3798"
       inkscape:connector-curvature="0"
       sodipodi:nodetypes="ccccc" />
    <path
       style="fill:#b3b3b3;stroke:#999999;stroke-width:0.2;stroke-miterlimit:4;stroke-dasharray:none"
       d="m 16,66 c 2,0 4,18 4,18 l 4,1 4,7 -12,-2 -12,2 4,-7 4,-1 c 0,0 2,-18 4,-18 z"
       id="path3796"
       inkscape:connector-curvature="0"
       sodipodi:nodetypes="scccccccs" />
    <path
       style="fill:url(#radialGradient3855);fill-opacity:1;stroke:none"
       d="m 16,69 c 2.748737,0 3,9.806027 3,9.806027 L 15.954307,76.844821 13,78.806027 C 13,78.806027 13.251263,69 16,69 z"
       id="path3847"
       inkscape:connector-curvature="0"
       sodipodi:nodetypes="scccs" />
    <path
       style="fill:#00ffff;fill-opacity:1;stroke:none"
       d="M 10,85 9,85.214286 9,88 l 1,0 0,-3 z"
       id="rect3804"
       inkscape:connector-curvature="0" />
    <path
       id="path3809"
       d="M 22,85 23,85.214286 23,88 l -1,0 0,-3 z"
       style="fill:#00ffff;fill-opacity:1;stroke:none"
       inkscape:connector-curvature="0" />
    <path
       id="path3811"
       d="m 8.5,87.5 -1,0.249999 0,2.250001 1,0 z"
       style="fill:#00ffff;fill-opacity:1;stroke:none"
       inkscape:connector-curvature="0"
       sodipodi:nodetypes="ccccc" />
    <path
       sodipodi:nodetypes="ccccc"
       inkscape:connector-curvature="0"
       style="fill:#00ffff;fill-opacity:1;stroke:none"
       d="m 23.5,87.5 1,0.249999 0,2.250001 -1,0 z"
       id="path3813" />
    <path
       style="opacity:0.46127948;fill:none;stroke:#808080;stroke-width:0.30000001;stroke-linecap:round;stroke-linejoin:round;stroke-miterlimit:4;stroke-opacity:1;stroke-dasharray:none"
       d="m 13,84 c 0,0 -0.150875,-2.67523 0,-4 0.503232,-4.418658 2,-13 3,-13 1,0 2.496768,8.581342 3,13 0.150875,1.32477 0,4 0,4"
       id="path3817"
       inkscape:connector-curvature="0"
       sodipodi:nodetypes="csssc" />
    <path
       style="fill:#b3b3b3;stroke:#9f9f9f;stroke-width:0.20000000000000001;stroke-linecap:butt;stroke-linejoin:miter;stroke-opacity:1;stroke-miterlimit:4;stroke-dasharray:none;fill-opacity:1"
       d="M 13 89 L 9 90 L 9 91.15625 L 13 90.5 L 13 89 z M 19 89 L 19 90.5 L 23 91.15625 L 23 90 L 19 89 z "
       id="path3819" />
  </g>
  <g
     inkscape:groupmode="layer"
     id="layer3"
     inkscape:label="Ebene#1">
    <path
       sodipodi:type="arc"
       style="fill:#0000ff;fill-opacity:1;stroke:#4d4d4d;stroke-width:0.18708287000000001;stroke-miterlimit:4;stroke-dasharray:none"
       id="path3801"
       sodipodi:cx="16"
       sodipodi:cy="79.5"
       sodipodi:rx="2"
       sodipodi:ry="3.5"
       d="m 18,79.5 a 2,3.5 0 1 1 -4,0 2,3.5 0 1 1 4,0 z"
       transform="matrix(1,0,0,1.1428571,3.0000004e-8,-9.8571426)" />
    <path
       sodipodi:type="arc"
       style="fill:url(#linearGradient3841);fill-opacity:1;stroke:none"
       id="path3839"
       sodipodi:cx="16"
       sodipodi:cy="79.5"
       sodipodi:rx="2"
       sodipodi:ry="3.5"
       d="m 18,79.5 a 2,3.5 0 1 1 -4,0 2,3.5 0 1 1 4,0 z"
       transform="matrix(0.78177999,0,0,-0.79119796,3.4915202,145.01558)" />
    <rect
       style="fill:#b3b3b3;fill-opacity:1;stroke:#a0a0a0;stroke-width:0.2;stroke-linecap:round;stroke-linejoin:round;stroke-miterlimit:4;stroke-opacity:1;stroke-dasharray:none"
       id="rect3827"
       width="5.9397335"
       height="1"
       x="13.030133"
       y="82" />
    <path
       transform="matrix(0.85451999,0,0,0.79119796,2.3276801,17.032905)"
       d="m 18,79.5 a 2,3.5 0 1 1 -4,0 2,3.5 0 1 1 4,0 z"
       sodipodi:ry="3.5"
       sodipodi:rx="2"
       sodipodi:cy="79.5"
       sodipodi:cx="16"
       id="path3829"
       style="fill:url(#linearGradient3837);fill-opacity:1;stroke:none"
       sodipodi:type="arc" />
  </g>
</svg>
